{
  "accessors": [
    {
      "bufferView": 2,
      "componentType": 5126,
      "count": 65532,
      "max": [
        -827.7120971679688,
        295.4617919921875,
        116.31201934814453
      ],
      "min": [
        -989.5408935546875,
        180.55068969726563,
        -32.7813835144043
      ],
      "type": "VEC3"
    },
    {
      "bufferView": 2,
      "byteOffset": 786384,
      "componentType": 5126,
      "count": 65532,
      "max": [
        0.9999996423721313,
        0.9999600648880005,
        0.9999678134918213
      ],
      "min": [
        -0.9999946355819702,
        -0.9997837543487549,
        -0.999994158744812
      ],
      "type": "VEC3"
    },
    {
      "bufferView": 1,
      "componentType": 5126,
      "count": 65532,
      "max": [
        0.9980000257492065,
        0.9979869723320007
      ],
      "min": [
        0.0020000000949949026,
        0.0020000000949949026
      ],
      "type": "VEC2"
    },
    {
      "bufferView": 0,
      "componentType": 5125,
      "count": 302577,
      "type": "SCALAR"
    },
    {
      "bufferView": 2,
      "byteOffset": 1572768,
      "componentType": 5126,
      "count": 65532,
      "max": [
        -828.0113525390625,
        294.7000732421875,
        118.65377044677734
      ],
      "min": [
        -989.6550903320313,
        179.87405395507813,
        -36.48520278930664
      ],
      "type": "VEC3"
    },
    {
      "bufferView": 2,
      "byteOffset": 2359152,
      "componentType": 5126,
      "count": 65532,
      "max": [
        0.9999886751174927,
        0.999992311000824,
        0.9999969005584717
      ],
      "min": [
        -0.9999904632568359,
        -0.9999819397926331,
        -0.9999826550483704
      ],
      "type": "VEC3"
    },
    {
      "bufferView": 1,
      "byteOffset": 524256,
      "componentType": 5126,
      "count": 65532,
      "max": [
        0.9960330128669739,
        0.9979959726333618
      ],
      "min": [
        0.0020000000949949026,
        0.0020000000949949026
      ],
      "type": "VEC2"
    },
    {
      "bufferView": 0,
      "byteOffset": 1210308,
      "componentType": 5125,
      "count": 315237,
      "type": "SCALAR"
    },
    {
      "bufferView": 2,
      "byteOffset": 3145536,
      "componentType": 5126,
      "count": 42458,
      "max": [
        -829.3744506835938,
        295.5813903808594,
        118.06080627441406
      ],
      "min": [
        -989.4170532226563,
        179.87060546875,
        -35.67023849487305
      ],
      "type": "VEC3"
    },
    {
      "bufferView": 2,
      "byteOffset": 3655032,
      "componentType": 5126,
      "count": 42458,
      "max": [
        0.999987006187439,
        0.9999761581420898,
        0.999980628490448
      ],
      "min": [
        -0.9999717473983765,
        -0.9999863505363464,
        -0.9999520778656006
      ],
      "type": "VEC3"
    },
    {
      "bufferView": 1,
      "byteOffset": 1048512,
      "componentType": 5126,
      "count": 42458,
      "max": [
        0.9973080158233643,
        0.9960860013961792
      ],
      "min": [
        0.0020000000949949026,
        0.0020000000949949026
      ],
      "type": "VEC2"
    },
    {
      "bufferView": 0,
      "byteOffset": 2471256,
      "componentType": 5125,
      "count": 169533,
      "type": "SCALAR"
    },
    {
      "bufferView": 2,
      "byteOffset": 4164528,
      "componentType": 5126,
      "count": 65532,
      "max": [
        -836.0732421875,
        298.3523254394531,
        108.17679595947266
      ],
      "min": [
        -979.5631103515625,
        199.5493927001953,
        -27.943241119384766
      ],
      "type": "VEC3"
    },
    {
      "bufferView": 2,
      "byteOffset": 4950912,
      "componentType": 5126,
      "count": 65532,
      "max": [
        0.9999463558197021,
        0.9999723434448242,
        0.9999992847442627
      ],
      "min": [
        -0.9997722506523132,
        -0.9999907612800598,
        -0.9999508261680603
      ],
      "type": "VEC3"
    },
    {
      "bufferView": 1,
      "byteOffset": 1388176,
      "componentType": 5126,
      "count": 65532,
      "max": [
        0.9816300272941589,
        0.965499997138977
      ],
      "min": [
        0.0019499999471008778,
        0.0019499999471008778
      ],
      "type": "VEC2"
    },
    {
      "bufferView": 0,
      "byteOffset": 3149388,
      "componentType": 5125,
      "count": 334713,
      "type": "SCALAR"
    },
    {
      "bufferView": 2,
      "byteOffset": 5737296,
      "componentType": 5126,
      "count": 55763,
      "max": [
        -836.0813598632813,
        299.540771484375,
        108.17679595947266
      ],
      "min": [
        -979.546142578125,
        199.62619018554688,
        -27.943241119384766
      ],
      "type": "VEC3"
    },
    {
      "bufferView": 2,
      "byteOffset": 6406452,
      "componentType": 5126,
      "count": 55763,
      "max": [
        0.9999014735221863,
        0.999993622303009,
        0.9999988079071045
      ],
      "min": [
        -0.999305784702301,
        -0.9999138116836548,
        -0.9999914169311523
      ],
      "type": "VEC3"
    },
    {
      "bufferView": 1,
      "byteOffset": 1912432,
      "componentType": 5126,
      "count": 55763,
      "max": [
        0.9977399706840515,
        0.9980400204658508
      ],
      "min": [
        0.006800000090152025,
        0.003659999929368496
      ],
      "type": "VEC2"
    },
    {
      "bufferView": 0,
      "byteOffset": 4488240,
      "componentType": 5125,
      "count": 239265,
      "type": "SCALAR"
    }
  ],
  "asset": {
    "extras": {
      "author": "Virtual Museums of Małopolska (https://sketchfab.com/WirtualneMuzeaMalopolski)",
      "license": "CC0-1.0 (http://creativecommons.org/publicdomain/zero/1.0/)",
      "source": "https://sketchfab.com/3d-models/a-royal-crown-a-prop-fcd365eacab747d58b8a54ccd178bcb4",
      "title": "A royal crown – a prop"
    },
    "generator": "Sketchfab-12.68.0",
    "version": "2.0"
  },
  "bufferViews": [
    {
      "buffer": 0,
      "byteLength": 5445300,
      "name": "floatBufferViews",
      "target": 34963
    },
    {
      "buffer": 0,
      "byteLength": 2358536,
      "byteOffset": 5445300,
      "byteStride": 8,
      "name": "floatBufferViews",
      "target": 34962
    },
    {
      "buffer": 0,
      "byteLength": 7075608,
      "byteOffset": 7803836,
      "byteStride": 12,
      "name": "floatBufferViews",
      "target": 34962
    }
  ],
  "buffers": [
    {
      "byteLength": 14879444,
      "uri": "scene.bin"
    }
  ],
  "images": [
    {
      "uri": "textures/Rz_A_116_Korona_krolewska__3_baseColor.jpeg"
    },
    {
      "uri": "textures/Rz_A_116_Korona_krolewska__31_baseColor.jpeg"
    }
  ],
  "materials": [
    {
      "doubleSided": true,
      "name": "Rz_A_116_Korona_krolewska__3",
      "pbrMetallicRoughness": {
        "baseColorTexture": {
          "index": 0
        },
        "metallicFactor": 0.4078598485,
        "roughnessFactor": 0.12547348479999998
      }
    },
    {
      "doubleSided": true,
      "name": "Rz_A_116_Korona_krolewska__31",
      "pbrMetallicRoughness": {
        "baseColorTexture": {
          "index": 1
        },
        "metallicFactor": 0.0
      }
    }
  ],
  "meshes": [
    {
      "name": "Object_0",
      "primitives": [
        {
          "attributes": {
            "NORMAL": 1,
            "POSITION": 0,
            "TEXCOORD_0": 2
          },
          "indices": 3,
          "material": 0,
          "mode": 4
        }
      ]
    },
    {
      "name": "Object_1",
      "primitives": [
        {
          "attributes": {
            "NORMAL": 5,
            "POSITION": 4,
            "TEXCOORD_0": 6
          },
          "indices": 7,
          "material": 0,
          "mode": 4
        }
      ]
    },
    {
      "name": "Object_2",
      "primitives": [
        {
          "attributes": {
            "NORMAL": 9,
            "POSITION": 8,
            "TEXCOORD_0": 10
          },
          "indices": 11,
          "material": 0,
          "mode": 4
        }
      ]
    },
    {
      "name": "Object_3",
      "primitives": [
        {
          "attributes": {
            "NORMAL": 13,
            "POSITION": 12,
            "TEXCOORD_0": 14
          },
          "indices": 15,
          "material": 1,
          "mode": 4
        }
      ]
    },
    {
      "name": "Object_4",
      "primitives": [
        {
          "attributes": {
            "NORMAL": 17,
            "POSITION": 16,
            "TEXCOORD_0": 18
          },
          "indices": 19,
          "material": 1,
          "mode": 4
        }
      ]
    }
  ],
  "nodes": [
    {
      "children": [
        1
      ],
      "matrix": [
        0.0,
        -2.220446049250313e-16,
        1.0,
        0.0,
        0.0,
        -1.0,
        -2.220446049250313e-16,
        0.0,
        1.0,
        0.0,
        0.0,
        0.0,
        -949.7677612304688,
        280.7900085449217,
        668.9777832031251,
        1.0
      ],
      "name": "Sketchfab_model"
    },
    {
      "children": [
        2,
        3,
        4,
        5,
        6
      ],
      "name": "Rz_A_116_Korona_krolewska__3.obj.cleaner.materialmerger.gles"
    },
    {
      "mesh": 0,
      "name": "Object_2"
    },
    {
      "mesh": 1,
      "name": "Object_3"
    },
    {
      "mesh": 2,
      "name": "Object_4"
    },
    {
      "mesh": 3,
      "name": "Object_5"
    },
    {
      "mesh": 4,
      "name": "Object_6"
    }
  ],
  "samplers": [
    {
      "magFilter": 9729,
      "minFilter": 9987,
      "wrapS": 10497,
      "wrapT": 10497
    }
  ],
  "scene": 0,
  "scenes": [
    {
      "name": "Sketchfab_Scene",
      "nodes": [
        0
      ]
    }
  ],
  "textures": [
    {
      "sampler": 0,
      "source": 0
    },
    {
      "sampler": 0,
      "source": 1
    }
  ]
}
