{
  "accessors": [
    {
      "bufferView": 2,
      "componentType": 5126,
      "count": 2679,
      "max": [
        140.9801025390625,
        92.49154663085938,
        14.863059043884277
      ],
      "min": [
        52.743370056152344,
        4.254814147949219,
        -0.11623597145080566
      ],
      "type": "VEC3"
    },
    {
      "bufferView": 2,
      "byteOffset": 32148,
      "componentType": 5126,
      "count": 2679,
      "max": [
        0.9999991655349731,
        0.9999991655349731,
        1.0
      ],
      "min": [
        -0.9999991655349731,
        -0.9999991655349731,
        -1.0
      ],
      "type": "VEC3"
    },
    {
      "bufferView": 3,
      "componentType": 5126,
      "count": 2679,
      "max": [
        1.0,
        1.0,
        0.9981316328048706,
        1.0
      ],
      "min": [
        -1.0,
        -1.0,
        -0.998131513595581,
        1.0
      ],
      "type": "VEC4"
    },
    {
      "bufferView": 1,
      "componentType": 5126,
      "count": 2679,
      "max": [
        0.9247432947158813,
        0.973594605922699
      ],
      "min": [
        0.026405369862914085,
        0.026405369862914085
      ],
      "type": "VEC2"
    },
    {
      "bufferView": 0,
      "componentType": 5125,
      "count": 12096,
      "type": "SCALAR"
    },
    {
      "bufferView": 2,
      "byteOffset": 64296,
      "componentType": 5126,
      "count": 1114,
      "max": [
        42.91046905517578,
        42.910457611083984,
        60.210697174072266
      ],
      "min": [
        -42.910465240478516,
        -42.91047668457031,
        2.6018781661987305
      ],
      "type": "VEC3"
    },
    {
      "bufferView": 2,
      "byteOffset": 77664,
      "componentType": 5126,
      "count": 1114,
      "max": [
        1.0,
        1.0,
        0.9999997615814209
      ],
      "min": [
        -1.0,
        -1.0,
        -1.0
      ],
      "type": "VEC3"
    },
    {
      "bufferView": 3,
      "byteOffset": 42864,
      "componentType": 5126,
      "count": 1114,
      "max": [
        1.0,
        1.0,
        0.1725429743528366,
        1.0
      ],
      "min": [
        -1.0,
        -1.0,
        -0.17254304885864258,
        1.0
      ],
      "type": "VEC4"
    },
    {
      "bufferView": 1,
      "byteOffset": 21432,
      "componentType": 5126,
      "count": 1114,
      "max": [
        0.9815238118171692,
        0.5857735872268677
      ],
      "min": [
        0.018476232886314392,
        0.018476232886314392
      ],
      "type": "VEC2"
    },
    {
      "bufferView": 0,
      "byteOffset": 48384,
      "componentType": 5125,
      "count": 6048,
      "type": "SCALAR"
    },
    {
      "bufferView": 2,
      "byteOffset": 91032,
      "componentType": 5126,
      "count": 118,
      "max": [
        2.4757204055786133,
        1.3319605588912964,
        70.01013946533203
      ],
      "min": [
        0.5695889592170715,
        -0.7380723357200623,
        58.900020599365234
      ],
      "type": "VEC3"
    },
    {
      "bufferView": 2,
      "byteOffset": 92448,
      "componentType": 5126,
      "count": 118,
      "max": [
        0.9576151371002197,
        1.0,
        0.9245877861976624
      ],
      "min": [
        -0.9706078171730042,
        -0.9355162382125854,
        -0.8501429557800293
      ],
      "type": "VEC3"
    },
    {
      "bufferView": 3,
      "byteOffset": 60688,
      "componentType": 5126,
      "count": 118,
      "max": [
        1.0,
        0.9746741056442261,
        0.7968841791152954,
        1.0
      ],
      "min": [
        -0.9999325275421143,
        -0.9799591898918152,
        -0.911069393157959,
        1.0
      ],
      "type": "VEC4"
    },
    {
      "bufferView": 1,
      "byteOffset": 30344,
      "componentType": 5126,
      "count": 118,
      "max": [
        0.9680522680282593,
        0.505160391330719
      ],
      "min": [
        0.9072600603103638,
        0.401089608669281
      ],
      "type": "VEC2"
    },
    {
      "bufferView": 0,
      "byteOffset": 72576,
      "componentType": 5125,
      "count": 453,
      "type": "SCALAR"
    },
    {
      "bufferView": 2,
      "byteOffset": 93864,
      "componentType": 5126,
      "count": 3180,
      "max": [
        44.826942443847656,
        44.82693099975586,
        118.49369812011719
      ],
      "min": [
        -44.82693862915039,
        -44.82694625854492,
        0.3128613829612732
      ],
      "type": "VEC3"
    },
    {
      "bufferView": 2,
      "byteOffset": 132024,
      "componentType": 5126,
      "count": 3180,
      "max": [
        1.0,
        1.0,
        1.0
      ],
      "min": [
        -1.0,
        -1.0,
        -1.0
      ],
      "type": "VEC3"
    },
    {
      "bufferView": 3,
      "byteOffset": 62576,
      "componentType": 5126,
      "count": 3180,
      "max": [
        1.0,
        1.0,
        0.7663373947143555,
        1.0
      ],
      "min": [
        -1.0,
        -1.0,
        -0.7663374543190002,
        1.0
      ],
      "type": "VEC4"
    },
    {
      "bufferView": 1,
      "byteOffset": 31288,
      "componentType": 5126,
      "count": 3180,
      "max": [
        0.7545800805091858,
        0.9743375182151794
      ],
      "min": [
        0.025662541389465332,
        0.025662541389465332
      ],
      "type": "VEC2"
    },
    {
      "bufferView": 0,
      "byteOffset": 74388,
      "componentType": 5125,
      "count": 16416,
      "type": "SCALAR"
    }
  ],
  "asset": {
    "extras": {
      "author": "Brandon Westlake (https://sketchfab.com/dr.badass2142)",
      "license": "SKETCHFAB Standard (https://sketchfab.com/licenses)",
      "source": "https://sketchfab.com/3d-models/glass-candle-free-f114a1dfc83b45aeb3daff96d2f4a2b8",
      "title": "Glass Candle (FREE)"
    },
    "generator": "Sketchfab-15.50.0",
    "version": "2.0"
  },
  "bufferViews": [
    {
      "buffer": 0,
      "byteLength": 140052,
      "name": "floatBufferViews",
      "target": 34963
    },
    {
      "buffer": 0,
      "byteLength": 56728,
      "byteOffset": 140052,
      "byteStride": 8,
      "name": "floatBufferViews",
      "target": 34962
    },
    {
      "buffer": 0,
      "byteLength": 170184,
      "byteOffset": 196780,
      "byteStride": 12,
      "name": "floatBufferViews",
      "target": 34962
    },
    {
      "buffer": 0,
      "byteLength": 113456,
      "byteOffset": 366964,
      "byteStride": 16,
      "name": "floatBufferViews",
      "target": 34962
    }
  ],
  "buffers": [
    {
      "byteLength": 480420,
      "uri": "scene.bin"
    }
  ],
  "extensionsUsed": [
    "KHR_materials_specular"
  ],
  "images": [
    {
      "uri": "textures/material_baseColor.png"
    },
    {
      "uri": "textures/material_metallicRoughness.png"
    },
    {
      "uri": "textures/material_normal.png"
    },
    {
      "uri": "textures/Wax__Wick_baseColor.png"
    },
    {
      "uri": "textures/Wax__Wick_metallicRoughness.png"
    },
    {
      "uri": "textures/Wax__Wick_normal.png"
    },
    {
      "uri": "textures/Candle_baseColor.png"
    },
    {
      "uri": "textures/Candle_metallicRoughness.png"
    },
    {
      "uri": "textures/Candle_normal.png"
    }
  ],
  "materials": [
    {
      "alphaMode": "BLEND",
      "name": "material",
      "normalTexture": {
        "index": 2
      },
      "occlusionTexture": {
        "index": 1
      },
      "pbrMetallicRoughness": {
        "baseColorTexture": {
          "index": 0
        },
        "metallicRoughnessTexture": {
          "index": 1
        }
      }
    },
    {
      "name": "Wax__Wick",
      "normalTexture": {
        "index": 5
      },
      "occlusionTexture": {
        "index": 4
      },
      "pbrMetallicRoughness": {
        "baseColorTexture": {
          "index": 3
        },
        "metallicFactor": 0.0,
        "metallicRoughnessTexture": {
          "index": 4
        }
      }
    },
    {
      "alphaMode": "BLEND",
      "extensions": {
        "KHR_materials_specular": {
          "specularColorFactor": [
            1.0,
            1.0,
            1.0
          ],
          "specularFactor": 1.0
        }
      },
      "name": "Candle",
      "normalTexture": {
        "index": 8
      },
      "occlusionTexture": {
        "index": 7
      },
      "pbrMetallicRoughness": {
        "baseColorTexture": {
          "index": 6
        },
        "metallicRoughnessTexture": {
          "index": 7
        }
      }
    }
  ],
  "meshes": [
    {
      "name": "Circle.004_Lid_0",
      "primitives": [
        {
          "attributes": {
            "NORMAL": 1,
            "POSITION": 0,
            "TANGENT": 2,
            "TEXCOORD_0": 3
          },
          "indices": 4,
          "material": 0,
          "mode": 4
        }
      ]
    },
    {
      "name": "Circle.002_Wax & Wick_0",
      "primitives": [
        {
          "attributes": {
            "NORMAL": 6,
            "POSITION": 5,
            "TANGENT": 7,
            "TEXCOORD_0": 8
          },
          "indices": 9,
          "material": 1,
          "mode": 4
        }
      ]
    },
    {
      "name": "Circle.001_Wax & Wick_0",
      "primitives": [
        {
          "attributes": {
            "NORMAL": 11,
            "POSITION": 10,
            "TANGENT": 12,
            "TEXCOORD_0": 13
          },
          "indices": 14,
          "material": 1,
          "mode": 4
        }
      ]
    },
    {
      "name": "Circle_Candle_0",
      "primitives": [
        {
          "attributes": {
            "NORMAL": 16,
            "POSITION": 15,
            "TANGENT": 17,
            "TEXCOORD_0": 18
          },
          "indices": 19,
          "material": 2,
          "mode": 4
        }
      ]
    }
  ],
  "nodes": [
    {
      "children": [
        1
      ],
      "matrix": [
        1.0,
        0.0,
        0.0,
        0.0,
        0.0,
        2.220446049250313e-16,
        -1.0,
        0.0,
        0.0,
        1.0,
        2.220446049250313e-16,
        0.0,
        0.0,
        0.0,
        0.0,
        1.0
      ],
      "name": "Sketchfab_model"
    },
    {
      "children": [
        2
      ],
      "matrix": [
        1.0,
        0.0,
        0.0,
        0.0,
        0.0,
        0.0,
        1.0,
        0.0,
        0.0,
        -1.0,
        0.0,
        0.0,
        0.0,
        0.0,
        0.0,
        1.0
      ],
      "name": "3cadde1899a947beba092d5152ee437f.fbx"
    },
    {
      "children": [
        3,
        5,
        7,
        9
      ],
      "name": "RootNode"
    },
    {
      "children": [
        4
      ],
      "matrix": [
        1.0,
        0.0,
        0.0,
        0.0,
        0.0,
        -1.6292067939183141e-07,
        -0.9999999999999868,
        0.0,
        0.0,
        0.9999999999999868,
        -1.6292067939183141e-07,
        0.0,
        0.0,
        0.0,
        0.0,
        1.0
      ],
      "name": "Circle.004"
    },
    {
      "mesh": 0,
      "name": "Circle.004_Lid_0"
    },
    {
      "children": [
        6
      ],
      "matrix": [
        1.0,
        0.0,
        0.0,
        0.0,
        0.0,
        -1.6292067939183141e-07,
        -0.9999999999999868,
        0.0,
        0.0,
        0.9999999999999868,
        -1.6292067939183141e-07,
        0.0,
        0.0,
        0.0,
        0.0,
        1.0
      ],
      "name": "Circle.002"
    },
    {
      "mesh": 1,
      "name": "Circle.002_Wax & Wick_0"
    },
    {
      "children": [
        8
      ],
      "matrix": [
        1.0,
        0.0,
        0.0,
        0.0,
        0.0,
        -1.6292067939183141e-07,
        -0.9999999999999868,
        0.0,
        0.0,
        0.9999999999999868,
        -1.6292067939183141e-07,
        0.0,
        0.0,
        0.0,
        0.0,
        1.0
      ],
      "name": "Circle.001"
    },
    {
      "mesh": 2,
      "name": "Circle.001_Wax & Wick_0"
    },
    {
      "children": [
        10
      ],
      "matrix": [
        1.0,
        0.0,
        0.0,
        0.0,
        0.0,
        -1.6292067939183141e-07,
        -0.9999999999999868,
        0.0,
        0.0,
        0.9999999999999868,
        -1.6292067939183141e-07,
        0.0,
        0.0,
        0.0,
        0.0,
        1.0
      ],
      "name": "Circle"
    },
    {
      "mesh": 3,
      "name": "Circle_Candle_0"
    }
  ],
  "samplers": [
    {
      "magFilter": 9729,
      "minFilter": 9987,
      "wrapS": 10497,
      "wrapT": 10497
    }
  ],
  "scene": 0,
  "scenes": [
    {
      "name": "Sketchfab_Scene",
      "nodes": [
        0
      ]
    }
  ],
  "textures": [
    {
      "sampler": 0,
      "source": 0
    },
    {
      "sampler": 0,
      "source": 1
    },
    {
      "sampler": 0,
      "source": 2
    },
    {
      "sampler": 0,
      "source": 3
    },
    {
      "sampler": 0,
      "source": 4
    },
    {
      "sampler": 0,
      "source": 5
    },
    {
      "sampler": 0,
      "source": 6
    },
    {
      "sampler": 0,
      "source": 7
    },
    {
      "sampler": 0,
      "source": 8
    }
  ]
}
