{
  "accessors": [
    {
      "bufferView": 2,
      "componentType": 5126,
      "count": 2425,
      "max": [
        2.478633403778076,
        5.968175411224365,
        2.7323157787323
      ],
      "min": [
        -2.4897561073303223,
        -3.1847968101501465,
        -0.9182962775230408
      ],
      "type": "VEC3"
    },
    {
      "bufferView": 2,
      "byteOffset": 29100,
      "componentType": 5126,
      "count": 2425,
      "max": [
        0.9990612268447876,
        0.9971388578414917,
        0.9999722838401794
      ],
      "min": [
        -0.9990612268447876,
        -0.9999975562095642,
        -0.999964714050293
      ],
      "type": "VEC3"
    },
    {
      "bufferView": 3,
      "componentType": 5126,
      "count": 2425,
      "max": [
        0.9999985098838806,
        0.9998862743377686,
        0.996658444404602,
        1.0
      ],
      "min": [
        -0.9991621971130371,
        -0.9997089505195618,
        -0.9990350604057312,
        -1.0
      ],
      "type": "VEC4"
    },
    {
      "bufferView": 1,
      "componentType": 5126,
      "count": 2425,
      "max": [
        0.9998009204864502,
        0.9978211522102356
      ],
      "min": [
        0.00019901721680071205,
        0.00019901721680071205
      ],
      "type": "VEC2"
    },
    {
      "bufferView": 1,
      "byteOffset": 19400,
      "componentType": 5126,
      "count": 2425,
      "max": [
        0.9998009204864502,
        0.9978211522102356
      ],
      "min": [
        0.00019901721680071205,
        0.00019901721680071205
      ],
      "type": "VEC2"
    },
    {
      "bufferView": 1,
      "byteOffset": 38800,
      "componentType": 5126,
      "count": 2425,
      "max": [
        0.9998009204864502,
        0.9978211522102356
      ],
      "min": [
        0.00019901721680071205,
        0.00019901721680071205
      ],
      "type": "VEC2"
    },
    {
      "bufferView": 0,
      "componentType": 5125,
      "count": 10932,
      "type": "SCALAR"
    }
  ],
  "asset": {
    "extras": {
      "author": "QuazrSCI (https://sketchfab.com/QuazrSCI)",
      "license": "CC-BY-4.0 (http://creativecommons.org/licenses/by/4.0/)",
      "source": "https://sketchfab.com/3d-models/plushie-shark-875414d5e45c42f9a5323ba8a8beed19",
      "title": "Plushie Shark"
    },
    "generator": "Sketchfab-15.24.0",
    "version": "2.0"
  },
  "bufferViews": [
    {
      "buffer": 0,
      "byteLength": 43728,
      "name": "floatBufferViews",
      "target": 34963
    },
    {
      "buffer": 0,
      "byteLength": 58200,
      "byteOffset": 43728,
      "byteStride": 8,
      "name": "floatBufferViews",
      "target": 34962
    },
    {
      "buffer": 0,
      "byteLength": 58200,
      "byteOffset": 101928,
      "byteStride": 12,
      "name": "floatBufferViews",
      "target": 34962
    },
    {
      "buffer": 0,
      "byteLength": 38800,
      "byteOffset": 160128,
      "byteStride": 16,
      "name": "floatBufferViews",
      "target": 34962
    }
  ],
  "buffers": [
    {
      "byteLength": 198928,
      "uri": "scene.bin"
    }
  ],
  "extensionsUsed": [
    "KHR_materials_specular"
  ],
  "images": [
    {
      "uri": "textures/sharkplush_baseColor.png"
    },
    {
      "uri": "textures/sharkplush_metallicRoughness.png"
    },
    {
      "uri": "textures/sharkplush_normal.png"
    }
  ],
  "materials": [
    {
      "doubleSided": true,
      "extensions": {
        "KHR_materials_specular": {
          "specularColorFactor": [
            1.0,
            1.0,
            1.0
          ],
          "specularFactor": 0.2
        }
      },
      "name": "sharkplush",
      "normalTexture": {
        "index": 2
      },
      "occlusionTexture": {
        "index": 1
      },
      "pbrMetallicRoughness": {
        "baseColorTexture": {
          "index": 0
        },
        "metallicFactor": 0.19961965598371345,
        "metallicRoughnessTexture": {
          "index": 1
        }
      }
    }
  ],
  "meshes": [
    {
      "name": "Sharkplush_sharkplush_0",
      "primitives": [
        {
          "attributes": {
            "NORMAL": 1,
            "POSITION": 0,
            "TANGENT": 2,
            "TEXCOORD_0": 3,
            "TEXCOORD_1": 4,
            "TEXCOORD_2": 5
          },
          "indices": 6,
          "material": 0,
          "mode": 4
        }
      ]
    }
  ],
  "nodes": [
    {
      "children": [
        1
      ],
      "matrix": [
        0.20000000298023224,
        0.0,
        0.0,
        0.0,
        0.0,
        4.440892164675075e-17,
        -0.20000000298023224,
        0.0,
        0.0,
        0.20000000298023224,
        4.440892164675075e-17,
        0.0,
        0.0,
        0.0,
        0.0,
        1.0
      ],
      "name": "Sketchfab_model"
    },
    {
      "children": [
        2
      ],
      "matrix": [
        0.009999999776482582,
        0.0,
        0.0,
        0.0,
        0.0,
        0.0,
        0.009999999776482582,
        0.0,
        0.0,
        -0.009999999776482582,
        0.0,
        0.0,
        0.0,
        0.0,
        0.0,
        1.0
      ],
      "name": "458c7182de014563b40fde3dfb51ea9f.fbx"
    },
    {
      "children": [
        3
      ],
      "name": "RootNode"
    },
    {
      "children": [
        4
      ],
      "matrix": [
        100.0,
        0.0,
        0.0,
        0.0,
        0.0,
        -1.629206793918314e-05,
        -99.99999999999868,
        0.0,
        0.0,
        99.99999999999868,
        -1.629206793918314e-05,
        0.0,
        0.0,
        0.0,
        0.0,
        1.0
      ],
      "name": "Sharkplush"
    },
    {
      "mesh": 0,
      "name": "Sharkplush_sharkplush_0"
    }
  ],
  "samplers": [
    {
      "magFilter": 9729,
      "minFilter": 9987,
      "wrapS": 10497,
      "wrapT": 10497
    }
  ],
  "scene": 0,
  "scenes": [
    {
      "name": "Sketchfab_Scene",
      "nodes": [
        0
      ]
    }
  ],
  "textures": [
    {
      "sampler": 0,
      "source": 0
    },
    {
      "sampler": 0,
      "source": 1
    },
    {
      "sampler": 0,
      "source": 2
    }
  ]
}
