{
  "accessors": [
    {
      "bufferView": 2,
      "componentType": 5126,
      "count": 55795,
      "max": [
        0.4807127118110657,
        0.3536710739135742,
        0.43254971504211426
      ],
      "min": [
        -0.23534901440143585,
        -0.327531099319458,
        -0.46661895513534546
      ],
      "type": "VEC3"
    },
    {
      "bufferView": 2,
      "byteOffset": 669540,
      "componentType": 5126,
      "count": 55795,
      "max": [
        0.9999456405639648,
        0.9999690055847168,
        0.999889075756073
      ],
      "min": [
        -0.9999095797538757,
        -0.9999126195907593,
        -0.9999917149543762
      ],
      "type": "VEC3"
    },
    {
      "bufferView": 1,
      "componentType": 5126,
      "count": 55795,
      "max": [
        0.999992847442627,
        0.9982821941375732
      ],
      "min": [
        1.2659455023822375e-05,
        6.403860425052699e-06
      ],
      "type": "VEC2"
    },
    {
      "bufferView": 1,
      "byteOffset": 446360,
      "componentType": 5126,
      "count": 55795,
      "max": [
        0.999992847442627,
        0.9982821941375732
      ],
      "min": [
        1.2659455023822375e-05,
        6.403860425052699e-06
      ],
      "type": "VEC2"
    },
    {
      "bufferView": 1,
      "byteOffset": 892720,
      "componentType": 5126,
      "count": 55795,
      "max": [
        0.999992847442627,
        0.9982821941375732
      ],
      "min": [
        1.2659455023822375e-05,
        6.403860425052699e-06
      ],
      "type": "VEC2"
    },
    {
      "bufferView": 1,
      "byteOffset": 1339080,
      "componentType": 5126,
      "count": 55795,
      "max": [
        0.999992847442627,
        0.9982821941375732
      ],
      "min": [
        1.2659455023822375e-05,
        6.403860425052699e-06
      ],
      "type": "VEC2"
    },
    {
      "bufferView": 1,
      "byteOffset": 1785440,
      "componentType": 5126,
      "count": 55795,
      "max": [
        0.999992847442627,
        0.9982821941375732
      ],
      "min": [
        1.2659455023822375e-05,
        6.403860425052699e-06
      ],
      "type": "VEC2"
    },
    {
      "bufferView": 0,
      "componentType": 5125,
      "count": 299997,
      "type": "SCALAR"
    }
  ],
  "asset": {
    "extras": {
      "author": "DrawnWild (https://sketchfab.com/DrawnWild)",
      "license": "CC-BY-4.0 (http://creativecommons.org/licenses/by/4.0/)",
      "source": "https://sketchfab.com/3d-models/fox-plushie-10e1b585e8cb45fd8de534bfebab48a9",
      "title": "Fox Plushie"
    },
    "generator": "Sketchfab-15.37.0",
    "version": "2.0"
  },
  "bufferViews": [
    {
      "buffer": 0,
      "byteLength": 1199988,
      "name": "floatBufferViews",
      "target": 34963
    },
    {
      "buffer": 0,
      "byteLength": 2231800,
      "byteOffset": 1199988,
      "byteStride": 8,
      "name": "floatBufferViews",
      "target": 34962
    },
    {
      "buffer": 0,
      "byteLength": 1339080,
      "byteOffset": 3431788,
      "byteStride": 12,
      "name": "floatBufferViews",
      "target": 34962
    }
  ],
  "buffers": [
    {
      "byteLength": 4770868,
      "uri": "scene.bin"
    }
  ],
  "extensionsUsed": [
    "KHR_materials_unlit"
  ],
  "images": [
    {
      "uri": "textures/material_0_baseColor.jpeg"
    }
  ],
  "materials": [
    {
      "extensions": {
        "KHR_materials_unlit": {}
      },
      "name": "material_0",
      "pbrMetallicRoughness": {
        "baseColorTexture": {
          "index": 0
        },
        "metallicFactor": 0.0
      }
    }
  ],
  "meshes": [
    {
      "name": "Object_0",
      "primitives": [
        {
          "attributes": {
            "NORMAL": 1,
            "POSITION": 0,
            "TEXCOORD_0": 2,
            "TEXCOORD_1": 3,
            "TEXCOORD_2": 4,
            "TEXCOORD_3": 5,
            "TEXCOORD_4": 6
          },
          "indices": 7,
          "material": 0,
          "mode": 4
        }
      ]
    }
  ],
  "nodes": [
    {
      "children": [
        1
      ],
      "matrix": [
        1.0,
        0.0,
        0.0,
        0.0,
        0.0,
        2.220446049250313e-16,
        -1.0,
        0.0,
        0.0,
        1.0,
        2.220446049250313e-16,
        0.0,
        0.0,
        0.0,
        0.0,
        1.0
      ],
      "name": "Sketchfab_model"
    },
    {
      "children": [
        2
      ],
      "name": "root"
    },
    {
      "children": [
        3
      ],
      "matrix": [
        1.0,
        0.0,
        0.0,
        0.0,
        0.0,
        2.220446049250313e-16,
        1.0,
        0.0,
        0.0,
        -1.0,
        2.220446049250313e-16,
        0.0,
        0.0,
        0.0,
        0.0,
        1.0
      ],
      "name": "GLTF_SceneRootNode"
    },
    {
      "children": [
        4
      ],
      "name": "_0"
    },
    {
      "mesh": 0,
      "name": "Object_4"
    }
  ],
  "samplers": [
    {
      "magFilter": 9729,
      "minFilter": 9987,
      "wrapS": 10497,
      "wrapT": 10497
    }
  ],
  "scene": 0,
  "scenes": [
    {
      "name": "Sketchfab_Scene",
      "nodes": [
        0
      ]
    }
  ],
  "textures": [
    {
      "sampler": 0,
      "source": 0
    }
  ]
}
